<?xml version="1.0" encoding="UTF-8"?>
<svg version="1.1" xmlns="http://www.w3.org/2000/svg" width="150" height="150">
<path d="M0 0 C3 1 3 1 5 4.4375 C9.7769531 14.70794917 11.71075604 24.06077698 8 35 C3.02699434 48.57273368 -10.98586289 59.17215462 -20.94995117 69.13525391 C-23.46104964 71.64857044 -25.96400259 74.16982332 -28.46679688 76.69140625 C-30.05940765 78.28694577 -31.65248918 79.88201557 -33.24609375 81.4765625 C-33.99499374 82.23264801 -34.74389374 82.98873352 -35.51548767 83.76773071 C-36.20703445 84.45620087 -36.89858124 85.14467102 -37.61108398 85.85400391 C-38.21903305 86.46337799 -38.82698212 87.07275208 -39.45335388 87.70059204 C-41 89 -41 89 -43 89 C-48.97294403 81.9428582 -51.62517863 72.70265789 -51.28125 63.57421875 C-49.92355409 51.14752981 -44.43689641 44.07870857 -35.63671875 35.6640625 C-33.91264128 34.08224778 -33.91264128 34.08224778 -33 32 C-32.34 32 -31.68 32 -31 32 C-30.67 31.01 -30.34 30.02 -30 29 C-28.55664062 27.57788086 -28.55664062 27.57788086 -26.65625 26.02734375 C-20.95575019 21.19082594 -15.75846936 15.86641928 -10.5 10.5625 C-9.47679861 9.5342702 -8.45336267 8.50627374 -7.4296875 7.47851562 C-4.95042001 4.98835662 -2.47432462 2.49507167 0 0 Z " fill="#C2A66D" transform="translate(92,34)"/>
<path d="M0 0 C3.56904982 1.42305398 4.89422065 2.94656557 6.6875 6.3125 C7.10386719 7.07175781 7.52023438 7.83101563 7.94921875 8.61328125 C11.60987534 16.92800682 11.17114169 27.61982773 8.25 36.0625 C6.67402571 39.87860918 4.89660861 42.99994108 2 46 C0.0625 45.1875 0.0625 45.1875 -2 44 C-2.33 43.01 -2.66 42.02 -3 41 C-4.3153341 40.29848848 -5.65117592 39.63474075 -7 39 C-8.75 37.5 -8.75 37.5 -10 36 C-10 35.34 -10 34.68 -10 34 C-10.639375 33.731875 -11.27875 33.46375 -11.9375 33.1875 C-14 32 -14 32 -15 29 C-15.639375 28.690625 -16.27875 28.38125 -16.9375 28.0625 C-19.47802844 26.75374293 -19.85331176 25.54533936 -21 23 C-20.5059668 22.51644043 -20.01193359 22.03288086 -19.50292969 21.53466797 C-17.24659849 19.3201599 -14.99827529 17.09768517 -12.75 14.875 C-11.58404297 13.73417969 -11.58404297 13.73417969 -10.39453125 12.5703125 C-6.39688642 8.60683557 -2.88031451 4.84698087 0 0 Z " fill="#C3A872" transform="translate(100,77)"/>
<path d="M0 0 C1.9375 0.8125 1.9375 0.8125 4 2 C4.33 2.99 4.66 3.98 5 5 C5.66 5 6.32 5 7 5 C7 5.66 7 6.32 7 7 C7.598125 7.2475 8.19625 7.495 8.8125 7.75 C11.29482087 9.16846907 12.36328035 10.69264738 14 13 C13.42443359 13.56509277 12.84886719 14.13018555 12.25585938 14.71240234 C9.66541456 17.26142102 7.08264063 19.81807556 4.5 22.375 C3.59378906 23.26445313 2.68757813 24.15390625 1.75390625 25.0703125 C0.89667969 25.92109375 0.03945313 26.771875 -0.84375 27.6484375 C-2.03774414 28.82672119 -2.03774414 28.82672119 -3.25585938 30.02880859 C-5.22088598 31.81096779 -5.22088598 31.81096779 -5 34 C-5.66 34 -6.32 34 -7 34 C-9.60060595 25.31733175 -8.67919923 15.22071079 -5 7 C-3.47681696 4.47949473 -1.85253302 2.30314916 0 0 Z " fill="#C0A56F" transform="translate(58,34)"/>
<path d="M0 0 C0 3 0 3 -1.63244629 4.99320984 C-2.39633667 5.75043839 -3.16022705 6.50766693 -3.94726562 7.2878418 C-5.23860413 8.57884041 -5.23860413 8.57884041 -6.55603027 9.8959198 C-7.49660278 10.82100845 -8.43717529 11.74609711 -9.40625 12.69921875 C-10.37097249 13.65834646 -11.33503505 14.61813837 -12.29846191 15.5785675 C-14.83680046 18.10544794 -17.38401883 20.62319076 -19.9331665 23.13916016 C-22.53246298 25.70777661 -25.12329473 28.28489941 -27.71484375 30.86132812 C-32.80163115 35.91593433 -37.89782572 40.96092091 -43 46 C-43 43 -43 43 -40.84765625 40.58984375 C-39.46900391 39.27693359 -39.46900391 39.27693359 -38.0625 37.9375 C-34.58797774 34.80039699 -34.58797774 34.80039699 -32 31 C-31.34 31 -30.68 31 -30 31 C-29.67 30.01 -29.34 29.02 -29 28 C-27.5390625 26.56030273 -27.5390625 26.56030273 -25.625 24.99609375 C-20.11503488 20.32123272 -15.08274681 15.19142192 -10 10.0625 C-9.02497614 9.0824469 -8.0497172 8.1026276 -7.07421875 7.12304688 C-4.71383382 4.75097687 -2.35583095 2.3765914 0 0 Z " fill="#BA9D6B" transform="translate(91,35)"/>
</svg>
